<svg id="visual" viewBox="0 0 900 600" width="900" height="600" xmlns="http://www.w3.org/2000/svg" xmlns:xlink="http://www.w3.org/1999/xlink" version="1.1"><rect x="0" y="0" width="900" height="600" fill="#ffffff"></rect><path d="M0 274L129 273L257 376L386 419L514 394L643 357L771 343L900 406L900 601L771 601L643 601L514 601L386 601L257 601L129 601L0 601Z" fill="#8993d7"></path><path d="M0 460L129 356L257 399L386 350L514 420L643 378L771 394L900 422L900 601L771 601L643 601L514 601L386 601L257 601L129 601L0 601Z" fill="#6975b7"></path><path d="M0 479L129 467L257 479L386 465L514 481L643 451L771 477L900 443L900 601L771 601L643 601L514 601L386 601L257 601L129 601L0 601Z" fill="#4a5897"></path><path d="M0 467L129 443L257 490L386 468L514 524L643 472L771 494L900 506L900 601L771 601L643 601L514 601L386 601L257 601L129 601L0 601Z" fill="#2b3d78"></path><path d="M0 519L129 513L257 581L386 536L514 558L643 507L771 578L900 574L900 601L771 601L643 601L514 601L386 601L257 601L129 601L0 601Z" fill="#01245b"></path></svg>